<?xml version="1.0" encoding="utf-8"?>
<!-- Generator: Adobe Illustrator 19.2.0, SVG Export Plug-In . SVG Version: 6.00 Build 0)  -->
<svg version="1.1" xmlns="http://www.w3.org/2000/svg" xmlns:xlink="http://www.w3.org/1999/xlink" x="0px" y="0px"
	 viewBox="0 0 400 120" style="enable-background:new 0 0 400 120;" xml:space="preserve">
<style type="text/css">
	.st0{fill:#FEFEFE;}
	.st1{fill:#FDFDFD;}
	.st2{fill:#F4F2F1;}
	.st3{fill:#F7F7F7;}
	.st4{fill:#EAE7E5;}
	.st5{fill:#E8E8E8;}
	.st6{fill:#CCCCCC;}
	.st7{fill:#EDECEC;}
	.st8{fill:#D4D4D4;}
	.st9{fill:#DBDBDB;}
	.st10{fill:#DCDCDC;}
	.st11{fill:#E0E0E0;}
	.st12{fill:#D5D5D5;}
	.st13{fill:#D8D8D8;}
	.st14{fill:#DDDDDD;}
	.st15{fill:#BBB6B2;}
	.st16{fill:#AFAFAF;}
	.st17{fill:#B6AEA9;}
	.st18{fill:#CBCBCB;}
	.st19{fill:#CFB6AC;}
	.st20{fill:#CCC0B7;}
	.st21{fill:#F5642B;}
	.st22{fill:#F36127;}
	.st23{fill:#C2B3AB;}
	.st24{fill:#BBACA5;}
	.st25{fill:#BFB4AD;}
	.st26{fill:#B6AEAA;}
	.st27{fill:#C0ADA3;}
	.st28{fill:#A79690;}
	.st29{fill:#F2642E;}
	.st30{fill:#BDAAA0;}
	.st31{fill:#F25F24;}
	.st32{fill:#F15918;}
	.st33{fill:#B9B9BA;}
	.st34{fill:#9D9998;}
	.st35{fill:#DA7E57;}
	.st36{fill:#B4ACA7;}
	.st37{fill:#F3642A;}
	.st38{fill:#39405F;}
	.st39{fill:#4D536A;}
	.st40{fill:#F06225;}
	.st41{fill:#D06037;}
	.st42{fill:#F25E23;}
	.st43{fill:#F35E24;}
	.st44{fill:#F35B1B;}
	.st45{fill:#F25816;}
	.st46{fill:#F4581E;}
	.st47{fill:#F45914;}
	.st48{fill:#F2662B;}
	.st49{fill:#F35817;}
	.st50{fill:#F35918;}
	.st51{fill:#F35212;}
	.st52{fill:#F55813;}
	.st53{fill:#F4591A;}
	.st54{fill:#F45619;}
	.st55{fill:#F4561B;}
	.st56{fill:#3F4361;}
	.st57{fill:#353E5F;}
	.st58{fill:#293C61;}
	.st59{fill:#263868;}
	.st60{fill:#273962;}
	.st61{fill:#253B66;}
	.st62{fill:#243A5E;}
	.st63{font-family:'DKFaceYourFearsII';}
	.st64{font-size:72px;}
</style>
<g id="logo">
	<g id="cup">
		<g>
			<path class="st0" d="M111.9,61.3c0,15.3,0,30.5,0,45.8c0,1.7-0.4,2.1-2.1,2.1c-15-0.1-30.1,0-45.1,0c0.1-1.7,1.6-1.8,2.6-2
				c4.2-0.8,7.4-3,9.7-6.5c6.3-9.5,13.3-18.5,18.4-28.8c1.2-2.4,2.9-3.7,5.4-3.9c4.5-0.2,8-1.8,9.8-6.2
				C110.9,61.4,111.4,61.2,111.9,61.3z"/>
			<path class="st0" d="M34.4,109.2c-10.6,0-21.1,0-31.7,0c-1.7,0-2.1-0.4-2.1-2.1c0.1-14.6,0-29.2,0-43.8C1.1,63,1.6,63,2.1,63.2
				c0.3,0.4,0.4,0.9,0.4,1.4c-1,4.9,1.5,8.8,3.8,12.5c5.1,8.1,10.4,16,15.8,23.7c2.3,3.3,5.3,5.4,9.2,6.2
				C32.6,107.4,34.2,107.3,34.4,109.2z"/>
			<path class="st1" d="M2,64.7c0-0.4,0-0.9,0-1.3c-0.9-1.2-0.7-2.5-0.7-3.9c0-8.8,0-17.6,0-26.3c0-0.6,0-1.2,0-1.8
				c0.5-2.3,0.8-4.6,1.5-6.8c2.4-7.6,8.3-10.3,15.5-11.1c1.1-0.1,2.3,0.2,3.2-0.7c18.9,0,37.7,0,56.6,0c2.1,1.2,4.5,0.8,6.7,1.4
				c4.8,1.4,8.7,3.7,10.5,8.8c0.5,1.4,1,3.1,3.1,3c0.9,0.1,1.7,0.1,2.6,0.3c1.2,0.4,2.4,0.7,3.6,0.9c3.6,0.8,5.5,3.1,6.2,6.6
				c0.3,1.5,0,3.2,1,4.5c0,6.1,0,12.1,0,18.2c-1,1.1-0.8,2.6-0.9,3.8c-0.6,4.8-3.7,6.9-8.1,7.6c-0.7,0.1-1.3,0.3-2,0.3
				c-3,0-4.7,1.3-5.5,4.3c-0.7,2.7-2.8,4.8-4.3,7.2c-4.2,6.6-8.7,13-12.9,19.6c-2.4,3.8-5.4,7.1-10.4,7.5c-0.4-1.4-0.4-1.4,2.2-3.2
				c0.2-0.2,0.5-0.4,0.8-0.5c1.9-1.2,3.4-2.8,4.7-4.6c0.2-0.3,0.3-0.5,0.5-0.7c0.9-1.2,1.8-2.4,2.3-3.8c0.4-0.9,0.8-1.7,1.5-2.3
				c2.4-2.4,4.2-5.1,5.3-8.4c1.9-3.6,4.3-6.8,6.6-10.1c0.4-0.6,1.1-1.2,1.2-2c0.7-4.1,3.8-5.2,7.2-5.2c5.6-0.1,8.4-5.1,8.7-9.5
				c0.3-6,0.3-12.1,0-18.2c-0.3-5-3.1-8.2-8.4-9c-3.8-0.6-6.6-2-8.5-5.6c-3.1-5.9-8.8-7.8-15-7.9c-18.3-0.1-36.6-0.2-54.9,0
				C11.3,16,5.2,22,4.2,32.5c-1,11-0.9,21.9,0.1,32.9c0.3,3.4,1.6,6.5,3.8,9.2c4.3,5.6,8,11.7,11.9,17.5c0.3,0.5,0.4,1,0.5,1.6
				c-1.6,3-2.7,0.6-3.5-0.5c-3.3-4.8-6.5-9.7-9.7-14.5c-2.1-3.1-4.3-6.2-5-10.1C2.1,67.3,2.1,66,2,64.7z"/>
			<path class="st0" d="M101.1,27c-0.9,0-1.8,0-2.7,0c-1.2-0.7-2.2-1.4-2.7-2.8C94,19,90.4,16,85.2,14.5c-0.8-0.2-2.5,0-2.3-1.7
				c9.1,0,18.2,0,27.3,0c1.4,0,1.8,0.3,1.7,1.7c-0.1,6.4,0,12.8,0,19.2c-0.9,0.3-1.2-0.4-1.4-1C108.9,28.3,105.3,27.1,101.1,27z"/>
			<path class="st1" d="M67.4,106.5c4.9-0.7,8-3.9,10.6-7.8c4.7-7.1,8.9-14.6,14.2-21.3c1.4-1.7,2.6-3.5,3-5.9
				c0.4-2.1,1.7-3.5,4.3-3.4c2.9,0.1,5.4-1.1,8-2.2c1.6-0.7,2.1-2.4,2.5-4.1c0.4-1.8,0-3.9,2-5.1c0,1.6,0,3.1,0,4.7
				c-1.9,5.1-5.5,7.5-11,7.5c-2.1,0-3.5,1.2-4.6,3.3c-5.5,11.1-13,20.9-20,31c-1.8,2.5-4.6,4.2-7.9,4.7c-1.3,0.2-2.6,0.4-3.7,1.4
				c-0.4,0-0.9,0-1.3,0c-9.2-1.1-18.4-1.1-27.6,0c-0.4,0-0.9,0-1.3,0c-1.3-1.1-2.9-1-4.3-1.4c-3.6-1.1-6.5-3.2-8.7-6.4
				C15.2,91.9,8.2,83,3.1,72.9c-1.2-2.5-2.8-5.2-1.1-8.2c1.4,2.7,0.7,6.1,2.6,8.7c4.7,6.8,9.3,13.8,13.9,20.7
				c0.5,0.8,1.1,0.4,1.8,0.2c1.6-0.1,1.7,1.2,2.2,2.2c3.4,6.2,8.6,9.6,15.7,9.6c8.9,0,17.9,0.7,26.8-0.4
				C65.8,105.6,66.7,105.8,67.4,106.5z"/>
			<path class="st0" d="M2,31c0,0.4,0,0.9,0,1.3c-0.4,0.4-0.9,0.4-1.3,0c0-5.9,0.1-11.8,0-17.7c0-1.5,0.3-1.9,1.9-1.9
				c5,0.1,10,0.1,15,0.1c0,1.6-1.3,1.2-2.2,1.3C6.9,15.6,2.3,22,2,31z"/>
			<path class="st1" d="M0.7,32.4c0.4,0,0.9,0,1.3,0c0,10.3,0,20.7,0,31c-0.4,0-0.9,0-1.3,0C0.7,53,0.7,42.7,0.7,32.4z"/>
			<path class="st1" d="M2,31c-1.3-3.5,1.5-10.6,4.7-13.6c3.1-2.8,7.1-3.3,10.7-4.6c1.3,0,2.7,0,4,0c-0.2,1.7-1.5,1.2-2.6,1.4
				c-3.1,0.3-6.2,1.2-9,2.6c-4.8,2.4-6,7.2-7.3,11.8C2.5,29.4,2.9,30.4,2,31z"/>
			<path class="st0" d="M35.7,109.2c0.6-1.4,1.9-1.4,3.1-1.4c7.1,0,14.3,0,21.4,0c1.3,0,2.5,0,3.1,1.4
				C54.1,109.2,44.9,109.2,35.7,109.2z"/>
			<path class="st1" d="M82.9,12.8c3.8,1.8,8.1,2.9,11,6.5c1.9,2.4,2.3,5.5,4.5,7.7c-1.8,0.3-2.7-0.9-3.2-2.3
				C93,17.2,87,15.3,80.4,14.2c-1-0.2-2.1,0.1-2.2-1.4C79.7,12.8,81.3,12.8,82.9,12.8z"/>
			<path class="st1" d="M101.1,27c3.4-1,6.9,0.4,8.8,3.4c0.7,1.1,0.9,2.5,2,3.4c0,1.6,0,3.1,0,4.7c-1.6-0.6-1.5-2.2-1.6-3.4
				c-0.5-4.5-3.1-6.7-7.4-7.4C102.2,27.6,101.5,27.6,101.1,27z"/>
			<path class="st2" d="M21.6,96.4c-0.5-0.7-0.9-1.3-1.4-2C16,87.6,11.8,80.9,6.9,74.6c-1.9-2.5-3.1-5.4-3.4-8.3
				c-1.2-12-2-24.3,0.1-36.2c1.7-9.8,6.6-14.9,18.3-15.2c18.4-0.4,36.8-0.2,55.2-0.1c7.3,0.1,13.2,2.8,16.5,9.9
				c0.8,1.7,2.1,2.6,4.1,3.1c2.1,0.5,4.2,0.9,6.3,1.8c4.5,1.8,5.6,5.2,5.7,9.3c0.2,5.7,0.1,11.5,0,17.2c-0.1,6.2-3.3,9.8-9.6,10.7
				c-3,0.5-5.2,1.1-6.6,4.8c-1.8,4.6-5.3,8.5-8.1,12.7c-1.7,2.7-3.5,5.5-5.4,8.1c-0.4,0.7-0.9,1.3-1.3,2c-0.9,0.8-1.1,2.5-2.9,1.9
				c-0.5-1.7,1-3,0.9-4.7c0.9-2,2-3.8,3.7-5.2c1.2-0.5,1.9-1.6,2.5-2.6c3-4.7,6.5-9.1,8.9-14.2c1.3-2.7,3.5-4.3,6.5-4.7
				c4.1-0.5,7-2.7,8.5-6.6c0.7-1,0.6-2.2,0.8-3.3c0-0.3,0.1-0.7,0.2-1c0.4-4.1,0.4-8.2,0-12.2c-0.2-0.6-0.5-1.3-0.6-1.9
				c-0.7-5.1-3.6-8.2-8.5-9.6c-3.4-0.7-5.8-2.6-7.6-5.6c-2.6-4.3-6.5-6.7-11.5-7.4c-20.3-0.1-40.5-0.2-60.7,0
				c-1.6,0.5-3.3,0.5-4.7,1.7c-6,3.8-8.9,9.1-8.8,16.3c0.2,8.5,0.1,17.1,0,25.6c0,4.7,1.2,8.9,3.7,12.7c5.4,8.1,10.6,16.4,16.4,24.3
				c3,4.1,7.1,6.2,12.1,6.3c7.9,0.2,15.7,0.1,23.6,0c4.7-0.1,8.6-2.2,11.7-5.7c0.9-1,1.4-2.4,3.1-2.1c0.6,0.7,0.5,1.4,0,2l0,0
				c-1.6,2-3.3,3.8-5.4,5.4c-4,2.4-8.3,3.1-12.8,3c-6-0.1-12.1,0-18.1,0C31.7,106.8,25.7,103.3,21.6,96.4z"/>
			<path class="st3" d="M21.6,96.4c2.8,2.8,5.1,6.1,8.9,7.9c2.8,1.3,5.7,2.1,8.7,2.1c8.3,0,16.7,0.7,25.1-0.5
				c2.4-0.3,4.1-2.3,6.6-2.1c-0.6,1.6-2.5,1.4-3.4,2.7c-9.4,1.2-18.9,0.3-28.4,0.7c-6.9,0.3-11.8-3.2-16.3-7.7
				C22,98.7,21.9,97.4,21.6,96.4z"/>
			<path class="st3" d="M80.2,92.3c1.3-3,3.1-5.7,5.4-8.1C84.5,87.4,82.7,90.1,80.2,92.3z"/>
			<path class="st3" d="M70.8,103.8c1.5-2.1,3.3-3.9,5.4-5.4C75.1,101,73.4,102.8,70.8,103.8z"/>
			<path class="st3" d="M76.1,98.4c0-0.7,0-1.3,0-2l0,0c0.9-0.7,1.8-1.3,2.7-2C78.4,96,77.6,97.4,76.1,98.4z"/>
			<path class="st4" d="M76.1,96.4c-2.4,1.6-3.5,4.5-6.2,6c-2.9,1.7-5.8,2.7-9.2,2.7c-6.6,0-13.2-0.3-19.8,0.1
				c-8,0.4-13.7-2.8-18-9.4c-4.7-7.2-9.6-14.3-14.3-21.5c-2.6-4-4-8.4-4-13.3c0.1-9.1,0-18.2,0-27.3c0.1-7,3.4-12.1,9.4-15.5
				c0.6-0.4,1.2-0.4,1.8-0.2c0.7,0.9-0.2,1.4-0.6,2c-1.9,1.5-4,2.7-5.5,4.6c-1.1,1.1-1.6,2.5-2.1,4c-0.2,0.7-0.4,1.3-0.7,1.9
				C5.8,42,6,53.5,7,65c0.1,1.5,0.7,2.8,1.3,4.1c4,8.2,9.6,15.4,14.6,23c0.5,0.8,1.2,1.6,1.7,2.5c0.5,1.1,1.3,2.1,2.2,2.9
				c1.4,1.5,3,2.9,4.7,4.1c2.3,1.4,4.8,1.9,7.4,2c7.1,0,14.1,0,21.2,0c3,0,5.7-0.8,8.2-2.4c3-2.3,5-5.4,7.1-8.5c0.5-0.6,1-1.3,2-1
				C78,93.5,76.4,94.7,76.1,96.4C76.1,96.4,76.1,96.4,76.1,96.4z"/>
			<path class="st5" d="M107.8,58.6c-1.7,4.2-4.7,6.6-9.2,7c-3.1,0.3-4.9,2.2-6.2,4.9c-2.6,5.5-6.5,10.1-9.6,15.2
				c-0.4,0.7-1.1,1.1-1.9,1.1c-0.4-0.4-0.4-0.9-0.2-1.4C84.4,80.4,88,75.1,91,69.4c1.6-3.1,4-4.9,7.5-5.6c4.8-0.9,7.2-3.7,7.8-8.4
				c0.8-5,1-9.9,0.1-14.9c-1.1-6.2-2.5-7.7-8.5-8.9c-0.8-0.6-2.4-0.4-2.1-2.1c1.1-0.3,2.2-0.4,3.3,0.1c6.4,1.1,8.6,5.8,9.4,11.5
				c0.5,4.5,0.5,9,0,13.5c0,0.2,0,0.4,0,0.7C107.7,56.3,108.6,57.6,107.8,58.6z"/>
			<path class="st6" d="M80.9,85.6c0,0.4,0,0.9,0,1.3c-1.1,1.6-2.2,3.2-3.3,4.7c-0.5,0.4-0.9,0.9-1.4,1.3c-0.7,0.3-1.2,1.2-2.2,0.7
				c-0.3-0.4-0.4-0.9-0.4-1.4c1-3.2,3.3-5.5,5-8.3c3.9-4.7,7-9.9,10.1-15.1c0.6-1,1-2,2-2.7c0.6-0.3,1.2-0.6,1.9-0.2
				c0.1,2.5-1.6,4.2-2.8,6.2C87.1,76.9,84.1,81.3,80.9,85.6z"/>
			<path class="st7" d="M18.2,16.9c0.9-1,2.1-0.7,3.1-0.7c18.8,0,37.6,0,56.4,0c1.1,0,2.3-0.4,3.1,0.7c-0.2,0.1-0.3,0.3-0.5,0.4
				c-1.3,0.6-2.6,0.5-4,0.5c-17.9,0-35.8,0-53.8,0c-1.3,0-2.7,0.1-4-0.5C18.5,17.2,18.4,17,18.2,16.9z"/>
			<path class="st7" d="M99.1,29.7c-1.1,0-2.2,0-3.4,0c-1.9,0.6-2.8-0.8-3.8-2c-0.8-1-1.5-2.2-2.4-3.1c-1.8-2.5-4.1-4.4-6.9-5.8
				c-0.6-0.6-1.9-0.6-1.7-1.9c0,0,0,0,0,0c4.8,0.2,8.1,2.9,10.6,6.6C93.4,26.4,95.6,28.7,99.1,29.7z"/>
			<path class="st7" d="M108.5,54.6c0-4.5,0-9,0-13.5C109.6,45.6,109.6,50.1,108.5,54.6z"/>
			<path class="st7" d="M16.2,18.2c-0.7,0-1.3,0-2,0c1.1-1.3,2.5-1.4,4-1.3c0,0,0,0,0,0c0.2,1.3-0.8,1.2-1.6,1.4
				C16.5,18.2,16.3,18.2,16.2,18.2z"/>
			<path class="st7" d="M107.8,58.6c0.2-1.1-0.4-2.4,0.7-3.4C108.3,56.4,108.9,57.7,107.8,58.6z"/>
			<path class="st8" d="M74.1,93.7c0.7-0.2,1.3-0.5,2-0.7c-2.1,2.9-3.7,6.1-6.7,8.1c-3.4,2.3-7.1,3.1-11.1,3
				c-5.4-0.1-10.7-0.1-16.1,0c-4.2,0.1-8.2-0.5-11.9-2.4c-1.4-1.3-3.1-2.3-4-4c-0.6-1-1.4-1.8-2-2.7c-5.7-7.3-10.6-15.2-15.5-23
				c-0.3-0.5-0.4-1.3-0.6-1.9C6.4,66,5.7,61.8,5.7,57.4c0-5.7,0.1-11.4,0-17.1c-0.1-3.6,0.4-7.1,1-10.6c0-0.6,0.1-1.1,0.7-1.3
				c0.7-1.4,1.1-2.8,2-4.1c1.2-2.3,3.5-3.2,5.4-4.7c2.9-1.6,6-2.1,9.3-2c17,0.1,34,0,51,0c3.3,0,6.5,0.5,9.3,2.2
				c0.4,0.2,0.6,0.5,0.5,1c-0.4,0.5-1,0.7-1.7,0.7c-4.1-0.9-8.2-1.1-12.3-1.1c-15.9,0.1-31.8,0-47.8,0.1c-4.7,0-9.2,1-12,5.4
				c-0.7,1-1.5,2-1.8,3.3c-0.1,0.4-0.2,0.7-0.3,1c-0.7,2.3-0.9,4.6-0.9,7c0,7.4,0,14.8,0,22.2c0,4.8,1.3,9.3,4,13.3
				c4.5,6.7,9,13.4,13.4,20.2c3.9,5.9,9.2,8.9,16.4,8.6c4.9-0.2,9.9-0.1,14.8,0c5.8,0.1,10.8-1.3,14.6-6.1
				C72.1,94.6,72.7,93.4,74.1,93.7z"/>
			<path class="st9" d="M84.9,20.2c-4.9-1.8-10-2.1-15.2-2.1c-12.3,0.1-24.6,0-37,0c-6,0-12.1-0.4-18,1.3c0.4-0.4,0.9-0.9,1.3-1.3
				c0,0,0,0,0,0c2.6-0.9,5.2-1,7.9-1c17.2,0,34.4,0,51.5,0c2.5,0,4.9,0.2,7.2,1c2.8,1.4,5.6,2.8,6.8,6c-0.1,0.1-0.3,0.1-0.4,0.2
				C87,23.8,85.9,22.1,84.9,20.2z"/>
			<path class="st10" d="M6.7,29.7C5.9,36.9,6.2,44.1,6,51.3c-0.1,6.4,0.4,12.6,2,18.8C5.6,67,5.6,63.2,5.5,59.6
				c-0.2-7.8-0.1-15.7-0.1-23.5C5.4,33.8,5.8,31.7,6.7,29.7z"/>
			<path class="st11" d="M30.3,101.8c9.5,3.5,19.4,1.6,29.2,2c3.5,0.2,6.7-1.5,9.9-2.7c-2.3,2.7-5.5,3.3-8.8,3.3
				c-7.4,0.1-14.8,0.1-22.2,0C35.5,104.4,32.6,103.8,30.3,101.8z"/>
			<path class="st12" d="M9.4,24.3c-0.3,1.6-0.9,2.9-2,4.1C7.4,26.6,7.9,25.2,9.4,24.3z"/>
			<path class="st13" d="M24.3,95c1.1,0.6,2,1.3,2,2.7C25.2,97.1,24.3,96.4,24.3,95z"/>
			<path class="st14" d="M80.9,85.6c0.9-2.9,3-5.2,4.7-7.7c2.5-3.8,4.9-7.7,6.8-11.9c0.1-2,1.7-2.2,3.1-2.7c1.6-0.3,3.3,0.2,4.7-0.9
				c0.6-0.4,1.1-0.9,1.7-1.3c0.2-0.2,0.4-0.4,0.6-0.5c0.5-0.4,1.1-0.9,1.6-1.3c0.8-0.6,0.9-1.5,1.1-2.4c0.1-0.5,0.3-0.9,0.7-1.2
				c0.5-0.2,0.9-0.1,1.3,0.2c-0.8,4.7-3.8,8.1-8.3,8.7c-3.4,0.5-5.6,2.2-7.2,5.2c-2.6,5.1-5.9,9.7-9.1,14.4
				C82.2,84.9,81.8,85.6,80.9,85.6z"/>
			<path class="st9" d="M107.1,55.9c-0.4,0-0.9,0-1.3,0c-1-1.6-0.1-3.1,0-4.7c0.6-2.4,0.6-4.8,0.1-7.2c-0.2-0.7-0.2-1.3-0.3-2
				c-0.1-1.1,0.1-2.2-0.4-3.2c-0.9-1.9-1.9-3.7-3.4-5.2c-1.1-1.3-3.2-0.7-4.2-2.3c0-0.1,0.1-0.3,0.1-0.4c5.7,0.1,8.6,3,9.5,8.7
				C108.1,45.1,108,50.5,107.1,55.9z"/>
			<path class="st9" d="M89.6,24.3c2.7,1.1,2.9,4.8,6,5.4c0.7,0.4,1.3,0.9,2,1.3c0,0,0,0,0,0C93.9,32.3,90,29,89.6,24.3L89.6,24.3z"
				/>
			<path class="st15" d="M74.1,93.7c-4.5,6.4-10.5,9.4-18.4,8.8c-4.9-0.3-9.9-0.2-14.8,0c-6.6,0.2-11.7-2.7-15.3-8
				c-4.9-7.1-9.6-14.3-14.3-21.5C8.7,69,7.4,64.6,7.4,60c0-8.1,0-16.1,0-24.2c0-2.1,0.2-4.2,1.3-6.1c0.3,0.3,0.5,0.6,0.7,1
				c0.6,10,0.1,19.9,0.2,29.9c0,2.3,0.2,4.5,1.5,6.4c0.2,0.3,0.4,0.6,0.5,0.9c0.4,2.5,1.9,4.6,3,6.8c2.5,4,5.2,8,7.9,11.8
				c0.6,0.7,1,1.5,1.5,2.3c1.4,2.3,2.8,4.5,4.8,6.3c1.7,1.7,3.1,4,6,3.8c0.5,0.1,1.1,0.1,1.6,0.3c8.5,0.4,17,0.4,25.4,0
				c0.7-0.2,1.4-0.3,2.1-0.3c3.4-0.1,4.8-3.1,6.9-5c1-0.6,1.7-2,3.2-1.5C74.1,92.8,74.1,93.2,74.1,93.7z"/>
			<path class="st16" d="M91,66.7c-3.1,4.9-6.3,9.9-9.4,14.8c-0.7,1.1-1.1,2.5-2.7,2.8c-0.2-0.2-0.4-0.5-0.5-0.8
				c0-2.3,1.7-3.7,2.8-5.4c0.8-1.3,1.9-2.4,2.3-3.9c0.2-0.6,0.6-1.1,1-1.5c0.6-0.6,1.3-1.1,1.5-1.9c0.1-0.4,0.3-0.8,0.4-1.2
				c0.1-0.3,0.2-0.5,0.4-0.8c0.6-1.1,1.1-2.2,1.6-3.3c0.1-0.3,0.3-0.6,0.5-0.9c3.4-4.7,8.6-4.6,13.6-4.7c0.3,0.5,0.3,1-0.1,1.5l0,0
				c-2.3,1-4.5,1.8-7,2.1C93.4,63.7,92.1,65.1,91,66.7z"/>
			<path class="st17" d="M78.8,83.6c0,0.2,0,0.5,0,0.7c-1,3-3.5,5.2-4.7,8c-0.9,0.7-1.8,1.3-2.7,2c-0.4-0.3-0.5-0.8-0.5-1.3
				c0.4-2.3,2.1-3.8,3.1-5.7c0.1-0.3,0.3-0.5,0.5-0.8c0.6-1,1.2-2,2.3-2.7C77.4,83.5,78.1,83.1,78.8,83.6z"/>
			<path class="st18" d="M91,66.7c0.3-2,1.8-3.1,3.5-3.6c2.6-0.8,5.2-1.8,8-1.8c-0.4,0.5-0.9,0.9-1.3,1.4c-1.7,0.9-3.6,0.7-5.4,1.4
				c-1.4,0.1-2.4,1.2-3.4,2C91.9,66.3,91.4,66.5,91,66.7z"/>
			<path class="st4" d="M82.9,18.2c-20.3-1.5-40.7-0.3-61.1-0.6c-1.9,0-3.7,0.4-5.6,0.6c0.7-0.4,1.3-0.9,2-1.3c20.9,0,41.8,0,62.7,0
				C81.5,17.3,82.2,17.8,82.9,18.2z"/>
			<path class="st19" d="M8.8,30.3c0-0.2,0-0.5,0-0.7c0-0.2,0-0.4,0-0.6c0.7-0.8,0.9-1.8,1.3-2.7c2.3-5.1,6.8-6.6,11.8-6.7
				c18.4-0.1,36.7-0.1,55.1,0c2.2,0,4.4,0.5,6.5,1.3c0.9,0.7,2.4,1.2,1.2,2.8c-0.5,0.3-1.1,0.3-1.6,0c-0.3-0.2-0.6-0.5-0.9-0.7
				c-2.5-0.8-5-1.2-7.6-1.2c-16.8,0-33.6,0-50.4,0c-3,0-6,0.3-8.8,1.7c-1.6,0.9-2.7,2.3-3.5,3.9c-0.3,0.7-0.6,1.4-0.8,2.1
				c-0.2,0.6-0.5,1.1-1,1.5C9.5,31.4,9.1,30.8,8.8,30.3z"/>
			<path class="st12" d="M89.6,24.3c1.9,3.2,3.3,7,8.1,6.7c1.3,1.2,3.5,0.6,4.7,2c-0.4,0.4-0.8,0.6-1.4,0.7c-0.7,0.1-1.4,0-2.1-0.2
				c-3.6-0.9-7.5-1.2-9.3-5.3c-0.7-1.7-1.9-3-3.1-4.3c-0.8-0.9-1.8-1.7-1.7-3.1c0-0.2,0-0.5,0-0.7C86.5,21.6,88,22.9,89.6,24.3z"/>
			<path class="st20" d="M84.9,20.9c1.5,2.5,4.4,3.8,5.4,6.7c-0.4,0.4-0.1,1.1-0.6,1.5c-0.3,0.1-0.5,0.1-0.8,0.1
				c-0.4-0.1-0.8-0.3-1.1-0.6c-0.5-0.4-0.7-0.9-0.9-1.5c-0.2-1.2-1.2-1.9-1.8-2.9C85,24,84.9,23.7,85,23.4c-0.5-0.8-0.9-1.7-1.4-2.5
				C84,20.9,84.4,20.9,84.9,20.9z"/>
			<path class="st15" d="M10.1,26.3c0.1,1.1-0.1,2.2-1.3,2.7C8.9,27.9,9.2,27,10.1,26.3z"/>
			<path class="st18" d="M101.1,33c0.5,0,0.9,0,1.4,0c1.3,1.7,2.6,3.4,3.4,5.4c0.8,1-0.2,2.4,0.7,3.4c0,0.7,0,1.3,0,2
				c0.5,2.5,0.5,4.9,0,7.4c0.2,1.6-0.3,3.2-0.7,4.7c0,0.4,0,0.9,0,1.3c-0.5,0.9-0.6,1.9-1.3,2.7c-0.7,0.4-1.3,0.9-2,1.3
				c0-0.5,0-0.9,0-1.4c-0.2-0.3-0.4-0.6-0.4-1c0-0.4,0.1-0.7,0.2-1.1c1.2-6.6,0.5-13.2,0.4-19.7c0-0.9-0.6-1.7-1.1-2.4
				C101.1,34.9,100.6,34,101.1,33z"/>
			<path class="st12" d="M95.7,64c1.7-1,3.5-1.4,5.4-1.4C99.6,64.5,97.6,64,95.7,64z"/>
			<path class="st12" d="M104.4,60c0.1-1.1,0.5-2,1.3-2.7C105.9,58.4,105.7,59.5,104.4,60z"/>
			<path class="st12" d="M106.5,51.2c0-2.5,0-4.9,0-7.4C107.5,46.3,107.5,48.8,106.5,51.2z"/>
			<path class="st12" d="M106.5,41.8c-1.1-0.9-0.5-2.2-0.7-3.4C106.9,39.4,106.3,40.7,106.5,41.8z"/>
			<path class="st21" d="M76.9,84.3c-0.7,0.9-1.4,1.8-2.1,2.7l-0.1-0.1l0.1,0.1c-1.2,2-2.3,4-3.5,5.9c-0.3,0.5-0.6,1.2-1.5,0.7
				c-0.4-0.7-0.2-1.3,0-1.4c-0.8,1.4-1.9,3.1-3.6,4.3c-1.4,1,0.6,0.6,0.4,1c0.1,1.6-1.5,1.4-2.2,2.1c-0.6,0.1-1.3,0.1-1.9,0.2
				c-8.9,0.3-17.9,0.4-26.8,0c-0.4-0.1-0.9-0.1-1.3-0.2c-0.7-0.7-2.2-0.4-2.2-1.9c0.2-0.2,0.4-0.4,0.7-0.5c-0.4-0.1-0.5,0.4-0.8,0.5
				c-1.9,0.3-2.1-1.7-3.2-2.5c-0.2-0.2-0.3-0.4-0.3-0.6c0.2-0.4,0.3,0.2,0.1-0.2c-0.1-0.2-0.3-0.2-0.5-0.2c-1.3-1.1-2.2-2.6-3.1-4
				c-0.5-1.1-1.7-2-1.1-3.4c0.3-0.4,1.6-0.3,0.8-1.3c-2-2.5-3.3-5.6-5.6-7.9c-0.8-1.1-1.3-2.4-3.1-2.1c-2.4-1.8-3.9-4.1-3.9-7.1
				c-2.1-13.2-1-26.4-0.7-39.6c1.9-4.6,5.3-6.4,10.3-6.3c18.5,0.2,36.9,0.1,55.4,0.1c1.7,0,3.4-0.2,5,0.5c0.7,0.3,1.1,1,1.9,1.2
				c1.3,0.7,1.9,1.8,2.3,3.1c0.2,0.6,0.6,1.1,0.9,1.6c0.2,0.4,0.3,0.9,0.2,1.4c-0.3,1.5-1.1,1.8-2.4,1.3c-0.7-0.3-1.5-0.6-2.2,0.1
				c-0.2,0.2-0.2,0.4-0.1,0.6c0.7,0.9,1.4,0.2,2.1,0c1-0.3,2-0.8,2.7,0.4c0.1,0.3,0.1,0.6,0,0.9c-0.8,0.9-2,1.4-2.8,2.3
				c-2.7,2-5.9,3.3-7.6,6.4c-0.5,2.8-0.5,5.7,0.1,8.5c0.3,0.5,0.6,1.1,0.9,1.6c0.5,1.4,1.8,1.8,2.9,2.5c2.2,1.8,5,2.9,6.8,5.2
				c0.2,1.3-0.2,2.7,0.6,3.9c0.3,0.6,0,1.2,0.2,1.7c-0.3,1.3-0.9,2.4-1.8,3.4c-0.3-0.2-0.4-0.7-0.8-0.7c-0.1,0-0.2,0.1-0.2,0.2
				c0.2,0.3,0.7,0.2,0.9,0.6c0,0.4,0,0.8,0,1.2c-0.7,0.7-1.3,1.5-2,2.2c-0.3,0.4-0.5,0.8-0.8,1.2c-0.9,1.4-1.1,3.5-3.3,3.7
				c-0.9-1.8,1.1-2.4,1.2-3.5c0,1.3-3.1,2-1,4.1C80.1,80.5,78.7,82.5,76.9,84.3z"/>
			<path class="st22" d="M12.1,29c0,10.5,0,21,0,31.5c0,2.2-0.5,4.4,1.1,6.4c0.7,0.8-0.2,1.9-0.5,2.8c-0.7,0.1-1-0.4-1.3-0.9
				c0-0.2,0-0.5,0-0.7c-1.1-0.9-0.9-2.3-1.4-3.4C9.7,54.4,9.9,44.1,9.8,33.7c0-1.5,0.6-2.8,0.9-4.2c-0.1-0.8-0.1-1.5,0.7-2
				C12,27.8,11.7,28.6,12.1,29z"/>
			<path class="st23" d="M10.7,65.5c-0.3,1,0.3,1.7,0.6,2.6c-2.1-1.4-2.6-3.6-2.6-6c0-10.6,0-21.2,0-31.8c0.3,0.2,0.7,0.4,1,0.7
				c1.2,0.8,0.6,2,0.6,3c0.1,9.4,0,18.8,0,28.1C10.5,63.3,10.2,64.4,10.7,65.5z"/>
			<path class="st24" d="M11.4,68.8c0.4,0.3,0.9,0.6,1.3,0.9c1,2.3,2.2,4.3,4.1,6c1.3,0.2,1.6,1.3,2.1,2.2c2.1,2.8,4.2,5.6,5.3,9.1
				c0.5,1.1,1,2.2,1.5,3.3c-1.3,0.6-1.5-0.8-2.2-1.3c-0.4-0.7-0.9-1.3-1.3-2c-2.6-4.1-5.2-8.2-8.1-12.1C12.9,73,11.4,71.2,11.4,68.8
				z"/>
			<path class="st25" d="M35.8,99.9c8.9,0,17.9,0,26.8,0c-1.1,0.9-2.4,0.5-3.5,0.5c-6.7,0-13.4,0-20.1,0
				C37.9,100.4,36.7,100.8,35.8,99.9z"/>
			<path class="st26" d="M14.1,74.8c3.5,3.5,6.1,7.6,8.1,12.1C19,83.2,16.4,79.2,14.1,74.8z"/>
			<path class="st26" d="M23.6,89c0.7,0.4,1.4,0.9,2.2,1.3c1.1,1.3,2.2,2.7,3.3,4l0,0c0,0.2-0.1,0.5-0.1,0.7
				c-0.1,0.3-0.3,0.5-0.6,0.7C26.4,93.7,24.5,91.7,23.6,89z"/>
			<path class="st27" d="M70.2,93.9c0.4-0.3,0.8-0.6,1.2-1c0,0.5,0,1,0,1.4c-2,2.1-3.4,5-6.9,5.3c0.7-0.6,1.5-1.3,2.2-1.9
				C67.3,95.9,68.7,94.8,70.2,93.9z"/>
			<path class="st25" d="M28.3,95.7c0.2-0.2,0.4-0.4,0.6-0.7c1.3,0.7,1.8,2.4,3.4,2.7l0,0c0.7,0.6,1.5,1.3,2.2,1.9
				C31.3,100.1,30.2,97.3,28.3,95.7z"/>
			<path class="st28" d="M102.4,59.3c0,0.2,0,0.5,0,0.7c-2.4,0.5-4.7,1.4-7.2,1.4c-2.8,0-4.4,2.4-6.3,4c-1-1.7-1.2-3.5-0.3-5.3
				C93.2,58.9,97.7,58.6,102.4,59.3z"/>
			<path class="st29" d="M89.1,60.1c0,1.8-0.1,3.5-0.1,5.3c-0.1,0.2-0.2,0.4-0.3,0.6c-0.2-0.4-0.3-0.9-0.5-1.3
				c-0.7-1.2-0.4-2.7-0.6-4c-2.1-1.9-5.1-2.9-6.8-5.4c0.1-0.1,0.2-0.2,0.4-0.3c3.2-0.1,4.7,2.8,7.2,3.9C88.8,59.2,89,59.6,89.1,60.1
				z"/>
			<path class="st30" d="M76.9,84.3c1.3-2,2.6-4.1,3.8-6.1c-0.2-0.2-0.1-0.4,0.2-0.5c1.1-1.2,2.1-2.5,3.2-3.7c0,2.7-2.5,4-3.5,6.2
				c-0.6,1.2-1.8,2-1.8,3.4C78.2,83.8,77.6,84,76.9,84.3z"/>
			<path class="st30" d="M84.9,72.8c0.1-1.2,0.8-1.9,2-2.2C86.5,71.6,86.3,72.7,84.9,72.8z"/>
			<path class="st21" d="M14.1,23.6c2.4-2.6,5.7-2.5,8.7-2.5c17.8-0.1,35.7-0.1,53.5,0c2.4,0,5.2-0.5,7.1,1.9c-1,0.7-2-0.2-3,0
				c-20,0-40,0-60,0c-1,0-2-0.1-3,0.1C16.4,23.4,15.4,24.7,14.1,23.6z"/>
			<path class="st31" d="M14.1,23.6c1,0.1,1.9-0.2,2.7-0.7c1.2-0.6,2.4-0.3,3.6-0.3c19.1,0,38.3,0,57.4,0c1.2,0,2.5,0.3,3.6-0.3
				c0.7,0.2,1.3,0.4,2,0.7c0.1,0.2,0.2,0.4,0.3,0.6c-0.1,0.5-0.4,0.7-0.8,0.8c-1.3-0.8-2.8-0.7-4.2-0.7c-17.9,0-35.8,0.1-53.8-0.1
				c-5.2,0-10.1-0.1-12.8,5.5c-0.6-0.3-0.7-0.9-0.7-1.5C11.5,25.7,12.7,24.5,14.1,23.6z"/>
			<path class="st21" d="M10.7,65.5c-1-1.6-0.7-3.5-0.7-5.2C9.9,50.5,9.9,40.8,9.8,31c0.3-0.5,0.6-1,0.9-1.5
				C10.7,41.5,10.7,53.5,10.7,65.5z"/>
			<path class="st32" d="M82.9,24.3c0.3-0.3,0.6-0.5,0.8-0.8c0.4,0,0.8-0.1,1.2-0.1c0,0-0.1,0.3-0.1,0.3c0.4,0.4,0.5,0.8,0.2,1.3
				c-0.3,0.2-0.6,0.2-0.8,0C83.7,24.9,83.2,24.8,82.9,24.3z"/>
			<path class="st33" d="M89.6,29c0-0.5,0.1-1,0.6-1.3c1.5,4.2,5.7,3.9,8.8,5.3c-3.3,1.6-5.8,1.3-8.6-1C90,31,88.8,30.3,89.6,29z"/>
			<path class="st34" d="M91,31c2.1,3.4,5.4,1.5,8.1,1.9c0.7,0,1.3,0,2,0.1c0.2,0.6,0.5,1.2,0.7,1.9c-0.6,0.7-1.3,0.5-2,0.2
				c-3.2-1.2-6.7,0.3-9.9-1c-0.5-0.3-0.7-0.9-0.8-1.5C89.3,31.6,89.7,30.8,91,31z"/>
			<path class="st35" d="M89.6,32.4c0,0.4,0,0.8,0,1.2c-0.2,1-0.9,1.3-1.9,1c-0.2-0.2-0.3-0.3-0.2-0.5c0-0.2,0.1-0.3,0.1-0.3l0,0
				c0.4-0.6-0.1-1.2-0.1-1.8c0.1-0.9,0-1.9,0.2-2.8c0.1-0.3,0.3-0.6,0.5-0.8c0.3,0.2,0.5,0.4,0.8,0.7C89.6,30.1,89.3,31.3,89.6,32.4
				z"/>
			<path class="st36" d="M89.6,32.4c-0.9-1-0.5-2.2-0.6-3.4c0.2,0,0.4,0,0.6,0c-0.1,1,1,1.3,1.3,2C90.3,31.3,89.9,31.7,89.6,32.4z"
				/>
			<path class="st21" d="M84.9,24.9c0-0.4,0-0.8,0-1.3c1.4,0.6,2.5,1.6,2.6,3.3c-0.3,0.2-0.6,0.2-0.9,0.1
				C85.9,26.5,85.3,25.8,84.9,24.9z"/>
			<path class="st37" d="M86.9,27c0.2,0,0.4,0,0.6,0c0.3,0.5,0.5,0.9,0.8,1.4c0,0.2-0.1,0.5-0.1,0.7c-0.4,0.4-0.8,0.4-1.3,0
				c-0.6,0-1.1-0.1-1.4-0.7C86.1,27.9,86.3,27.2,86.9,27z"/>
			<path class="st38" d="M100.4,34.4c0.4,0.5,0.9,0.6,1.4,0.5c1.2,0.8,2,1.7,2,3.2c0,5.9,0,11.8,0,17.7c0,1.2-0.3,2.2-1.3,2.9
				c-3.4,0.9-7,0.6-10.5,0.7c-0.3,0-0.7-0.1-1-0.3c-0.8-0.6-1.6-1.1-2.5-1.5c-3.1-2.1-6.8-3.4-9-6.8c-0.4-2.3-0.2-4.7-0.2-7
				c0-0.7,0.1-1.4,0.3-2.1c0.1-0.3,0.3-0.6,0.6-0.8c1.5-0.7,3.1-1.5,4.3-2.6c0.9-0.6,1.6-1.2,1.8-2.3c1.8-1.4,3.8-2.1,6.2-1.7
				C95.1,34.7,97.7,34.2,100.4,34.4z"/>
			<path class="st39" d="M91,58.7c3.8,0,7.6,0,11.5,0c0,0.2,0,0.4-0.1,0.6c-4.4,0.7-8.8,1.2-13.3,0.8c-0.3-0.3-0.5-0.5-0.8-0.8
				C89,58.5,90,58.5,91,58.7z"/>
			<path class="st40" d="M24.2,87c-2-2.9-4-5.9-6-8.8c0.3-0.5,0.6-1.1,1.3-0.7c3.2,2.1,4.1,6.1,6.6,8.8c0.3,0.3,0.3,1.3-0.2,1.4
				C25.4,87.8,24.8,87.2,24.2,87z"/>
			<path class="st41" d="M77.5,53.2c0-0.5-0.1-1-0.7-1.3c-0.6-3.4-0.5-6.7,0-10.1c2-3,4.9-4.8,8.1-6.1c0.3-0.2,0.5-0.2,0.8,0
				c0.2,0.7-0.1,1.2-0.5,1.7c-0.3,0.4-0.7,0.6-1,1c-1,0.8-2,1.6-3.2,2c-2.7,0.8-2.3,3.2-2.7,5.2c-0.5,2.5,1,5.1,0,7.6
				C78.1,53.5,77.8,53.5,77.5,53.2z"/>
			<path class="st37" d="M88.3,32.4c0,0.6-0.1,1.1-0.7,1.3c-0.8-1.6-1.8-0.9-2.7-0.3c-1,0.7-1.9,1.4-2.9,0.2
				c-0.7-0.7-0.7-1.7-0.1-2.5c0.7-1.1,1.9-1,3-0.7c0.7,0.2,1.5,2,2-0.2C88.7,30.1,87.4,32,88.3,32.4z"/>
			<path class="st42" d="M70.2,93.9c-0.6,1.8-2,2.8-3.4,3.9c-0.8-0.1-1.5-0.1-2.9-0.2c3-2.1,4.7-4.6,7.1-7.6
				C70.6,91.7,70.4,92.8,70.2,93.9z"/>
			<path class="st43" d="M81,77.7c0,0.2,0,0.3-0.2,0.5c-1.7-0.4-1.5-1.4-0.8-2.5c0.8-1.2,1.8-2.2,2.9-3.5
				C83.2,74.6,80.7,75.7,81,77.7z"/>
			<path class="st29" d="M76.8,41.8c0,3.4,0,6.7,0,10.1C75.7,48.5,75.7,45.2,76.8,41.8z"/>
			<path class="st44" d="M19.5,77.5c-0.4,0.2-0.9,0.4-1.3,0.7c-0.5-0.8-1-1.7-1.5-2.5c0.2-0.9,0.4-1.9,1.5-0.6
				C18.8,75.7,19.6,76.4,19.5,77.5z"/>
			<path class="st45" d="M86.9,69.4c-0.8,0.3-1.5,0.6-2.5,0.9c0.6-1.4,1.1-2.7,1.8-4.2C87.3,67.2,86.8,68.4,86.9,69.4
				C86.9,69.4,86.9,69.4,86.9,69.4z"/>
			<path class="st46" d="M86.9,27c0,0.9-0.5,1.3-1.3,1.3c0.3-1.4-0.7-2.3-1.4-3.4c0.2,0,0.5,0,0.7,0C85.8,25.4,86.5,26.1,86.9,27z"
				/>
			<path class="st29" d="M77.5,53.2c0.3,0,0.5,0,0.8,0c1.9-0.7,2.5,0.3,2.7,2c0,0-0.1,0.1-0.1,0.1C79.2,55.4,78.2,54.6,77.5,53.2z"
				/>
			<path class="st47" d="M87.6,60.7c1.2,1.2,0.5,2.6,0.6,4C86.9,63.5,86.7,62.2,87.6,60.7z"/>
			<path class="st48" d="M85.6,35.7c-0.2,0-0.5,0-0.7-0.1c0.3-1.5,1.5-1.8,2.7-1.9c0,0.2,0,0.4,0.1,0.6
				C87.6,35.8,86.6,35.7,85.6,35.7z"/>
			<path class="st49" d="M75.5,82.8c0.6-0.8,1.1-1.6,2.2-3C77.6,81.8,77,82.6,75.5,82.8z"/>
			<path class="st50" d="M14.4,69.6c0.6,0.8,1.1,1.7,1.9,2.8C14.6,72,14.2,71,14.4,69.6z"/>
			<path class="st51" d="M88.3,32.4c-0.4-0.7-0.9-1.4-1.3-2c0-0.4,0-0.9,0-1.3c0.4,0,0.8,0,1.3,0C88.2,30.1,88.2,31.3,88.3,32.4z"/>
			<path class="st52" d="M32.3,97.8c0.4-2,1.3-1.1,2.9-0.2C33.7,97.7,33,97.7,32.3,97.8C32.3,97.8,32.3,97.8,32.3,97.8z"/>
			<path class="st53" d="M29,94.3c0.1-0.6-0.2-1.3,0.6-1.6c0.1,0,0.6,0.3,0.6,0.5C30.3,94.1,29.7,94.2,29,94.3
				C29,94.3,29,94.3,29,94.3z"/>
			<path class="st54" d="M74.8,87c-0.6,0.1-1.4,0.7-1.3-0.5c0-0.3,0.5-1,0.7-0.9C75.2,85.6,74.6,86.5,74.8,87
				C74.8,87,74.8,87,74.8,87z"/>
			<path class="st38" d="M81,55.2c-0.7-0.9-1.5-1.7-2.7-2c-0.5-2.9-0.8-5.7-0.6-8.6c0.2-2.5,0.8-4.7,3.8-5c0.7,1.4-0.9,1-1.3,1.6
				l0,0c-0.7,0.8-0.7,1.7-0.7,2.7c0.3,2.6-0.6,5.2,0.5,7.8c2.3,2.4,5.1,4,7.9,5.7c0.8,0.8,2.2,0.5,3,1.3c0,0,0,0,0,0
				c-0.7,0.9-1.7,0.5-2.7,0.7C85.5,58.6,83.8,55.9,81,55.2z"/>
			<path class="st55" d="M81.5,22.3c-1.1,1.1-2.5,0.6-3.8,0.6c-20.3,0-40.5,0-60.8,0c0.9-1,2.1-0.7,3.2-0.7
				C40.5,22.3,61,22.3,81.5,22.3z"/>
			<path class="st56" d="M85.6,35.7c0.7-0.5,1.4-0.9,2.1-1.4c0.6-0.3,1.3-0.5,1.9-0.8c3.6,0.6,7.3-0.5,10.8,0.8
				c-2.6,0.9-5.3,1.1-7.8,0.5c-2.8-0.6-4.6,0.3-6.3,2.2c-0.5,0.4-1,0.4-1.5-0.1C85,36.6,85.3,36.2,85.6,35.7z"/>
			<path class="st57" d="M87.6,58c-2.6-1.9-5.8-2.9-7.4-6.1C80,51.8,80,51.6,80,51.5c0.1-0.1,0.1-0.2,0.2-0.2c2.9,2,5.8,4,8.8,6.1
				C88.7,57.8,88,57.6,87.6,58z"/>
			<path class="st58" d="M80.2,51.2c0,0.2,0,0.5,0,0.7c-1.6-0.2-1.3-1.5-1.3-2.5c0-2.1,0-4.2,0-6.2c0.4-0.4,0.9-0.4,1.3,0
				C80.2,45.8,80.2,48.5,80.2,51.2z"/>
			<path class="st59" d="M80.2,41.1c0.4-0.5,0.9-1,1.3-1.6c0.9-0.6,1.8-1.2,2.6-1.9c0.8-0.3,0.9,0.1,0.8,0.7
				C83.9,40.4,82.3,41.2,80.2,41.1z"/>
			<path class="st60" d="M87.6,58c0.3-0.5,0.8-0.7,1.3-0.7c1,0,2,0,2,1.3C89.8,58.7,88.6,58.6,87.6,58z"/>
			<path class="st61" d="M84.9,38.4c-0.3-0.2-0.5-0.5-0.8-0.7c0.2-0.2,0.4-0.5,0.6-0.7c0.5,0,1,0.1,1.5,0.1
				C86.8,38.5,85.6,38.2,84.9,38.4z"/>
			<path class="st62" d="M80.2,43.1c-0.4,0-0.9,0-1.3,0c0-1,0.4-1.6,1.3-2C80.2,41.8,80.2,42.5,80.2,43.1z"/>
		</g>
	</g>
</g>
<g id="name_1_">
	<text id="text1" transform="matrix(1 0 0 1 118.5039 86.8596)"  fill="black" class="st63 st64">Raviraj</text>
</g>
   <filter id="pictureFilter" >
    <feGaussianBlur stdDeviation="5" />
  </filter> 
</svg>
