<?xml version="1.0" encoding="utf-8"?>
<!-- Generator: Adobe Illustrator 19.2.0, SVG Export Plug-In . SVG Version: 6.00 Build 0)  -->
<svg version="1.1" id="headphone" xmlns="http://www.w3.org/2000/svg" xmlns:xlink="http://www.w3.org/1999/xlink" x="0px" y="0px"
	 viewBox="0 0 24 24" style="enable-background:new 0 0 24 24;" xml:space="preserve">
<style type="text/css">
	.hide{display:none;}
    .show{display:block;}
	.st2{display:inline;fill:none;stroke:#000000;stroke-width:2;stroke-miterlimit:10;}
</style>
<g id="headphone-group">
	<path id="headphone-off" d="M12,1c-5,0-9,4-9,9v7c0,1.7,1.3,3,3,3h3v-8H5v-2c0-3.9,3.1-7,7-7s7,3.1,7,7v2h-4v8h3c1.7,0,3-1.3,3-3
		v-7C21,5,17,1,12,1z"/>
	<path id="headphone-on" class="hide" d="M12,1c-5,0-9,4-9,9v7c0,1.7,1.3,3,3,3h3v-8H5v-2c0-3.9,3.1-7,7-7s7,3.1,7,7v2h-4v8h4v1h-7v2
		h6c1.7,0,3-1.3,3-3V10C21,5,17,1,12,1z"/>
	<g id="headphone-mute_1_" class="hide">
		<path id="headphone-mute" class="show" d="M12,1c-5,0-9,4-9,9v7c0,1.7,1.3,3,3,3h3v-8H5v-2c0-3.9,3.1-7,7-7s7,3.1,7,7v2h-4v8h3
			c1.7,0,3-1.3,3-3v-7C21,5,17,1,12,1z"/>
		<line class="st2" x1="3" y1="2.8" x2="21.7" y2="21.9"/>
	</g>
</g>
</svg>
