<?xml version="1.0" encoding="utf-8"?>
<!-- Generator: Adobe Illustrator 19.2.0, SVG Export Plug-In . SVG Version: 6.00 Build 0)  -->
<svg version="1.1" id="mic" xmlns="http://www.w3.org/2000/svg" xmlns:xlink="http://www.w3.org/1999/xlink" x="0px" y="0px"
	 viewBox="0 0 24 24" style="enable-background:new 0 0 24 24;" xml:space="preserve">
<style type="text/css">
	.hide{display:none;}
    .show{display:block;}
</style>
<g id="mic-group">
<path id="mic-off" class="show" d="M12,14c1.7,0,3-1.3,3-3V5c0-1.7-1.3-3-3-3S9,3.3,9,5v6C9,12.7,10.3,14,12,14z M10.8,4.9
	c0-0.7,0.5-1.2,1.2-1.2s1.2,0.5,1.2,1.2v6.2c0,0.7-0.5,1.2-1.2,1.2s-1.2-0.5-1.2-1.2V4.9z M17.3,11c0,3-2.5,5.1-5.3,5.1
	S6.7,14,6.7,11H5c0,3.4,2.7,6.2,6,6.7V21h2v-3.3c3.3-0.5,6-3.3,6-6.7C19,11,17.3,11,17.3,11z"/>
<path id="mic-on" class="hide" d="M12,14c1.7,0,3-1.3,3-3V5c0-1.7-1.3-3-3-3S9,3.3,9,5v6C9,12.7,10.3,14,12,14z M17.3,11
	c0,3-2.5,5.1-5.3,5.1S6.7,14,6.7,11H5c0,3.4,2.7,6.2,6,6.7V21h2v-3.3c3.3-0.5,6-3.3,6-6.7C19,11,17.3,11,17.3,11z"/>
<path id="mic-mute" class="hide" d="M19,11h-1.7c0,0.7-0.2,1.4-0.4,2.1l1.2,1.2C18.7,13.3,19,12.2,19,11z M15,11.2c0-0.1,0-0.1,0-0.2
	V5c0-1.7-1.3-3-3-3S9,3.3,9,5v0.2L15,11.2z M4.3,3L3,4.3l6,6V11c0,1.7,1.3,3,3,3c0.2,0,0.4,0,0.6-0.1l1.7,1.7
	c-0.7,0.3-1.5,0.5-2.3,0.5c-2.8,0-5.3-2.1-5.3-5.1H5c0,3.4,2.7,6.2,6,6.7V21h2v-3.3c0.9-0.1,1.8-0.5,2.5-0.9l4.2,4.2l1.3-1.3L4.3,3z
	"/>
    </g>
</svg>
